<?xml version="1.0" encoding="utf-8"?>
<!-- Generator: Adobe Illustrator 16.0.0, SVG Export Plug-In . SVG Version: 6.00 Build 0)  -->
<!DOCTYPE svg PUBLIC "-//W3C//DTD SVG 1.1//EN" "http://www.w3.org/Graphics/SVG/1.1/DTD/svg11.dtd">
<svg version="1.1" id="svg" xmlns="http://www.w3.org/2000/svg" xmlns:xlink="http://www.w3.org/1999/xlink" x="0px" y="0px"
	 width="400px" height="43.047px" viewBox="0 0 400 43.047" enable-background="new 0 0 400 43.047" xml:space="preserve">
<path id="path0" fill="#FFFFFF" d="M26.736,0.586c-0.334,0.345-0.501,0.711-0.776,1.083c-0.102,0.139-0.665,1.164-0.799,1.164
	c-0.363,0-1.268,1.803-1.521,2.16c-0.388,0.546-0.759,1.104-1.131,1.661c-0.39,0.583-0.78,1.165-1.165,1.751
	c-0.261,0.398-0.563,1.12-0.954,1.409c-0.354,0.259-0.519,0.873-0.773,1.228c-0.289,0.402-0.656,0.732-0.885,1.177
	c-0.384,0.745-0.992,1.356-1.379,2.087c-0.431,0.814-1.035,1.429-1.493,2.177c-0.372,0.607-0.713,1.16-1.132,1.714
	c-0.833,1.101-1.693,2.273-2.339,3.496c-0.128,0.243-0.302,0.29-0.481,0.49c-0.246,0.274-0.438,0.794-0.651,1.114
	c-0.217,0.327-0.272,0.518-0.534,0.762C10.639,24.134,10,24.951,10,25.014c0,0.542-0.862,1.447-1.191,1.839
	c-0.286,0.34-0.431,0.737-0.725,1.079c-0.126,0.146-0.417,0.454-0.417,0.675c0,0.305-0.5,0.266-0.5,0.565
	c0,0.391-0.53,0.85-0.711,1.172c-0.18,0.319-0.488,0.544-0.625,0.863c-0.311,0.723-0.864,1.4-1.312,2.041
	c-0.439,0.63-0.833,1.312-1.309,1.905c-0.416,0.518-0.663,1.338-1.094,1.793c-1.001,1.056-2.021,2.431-2.119,3.974
	c-0.013,0.211-0.155,0.513-0.01,0.702c0.282,0.369,1.131,0.342,1.528,0.374c1.737,0.142,3.491,0.134,5.232,0.149
	c12.835,0.113,25.675,0.021,38.511,0.021c2.749,0,5.497,0,8.246,0c0.708,0,1.417,0,2.125,0c0.75,0,0.947-0.955,1.027-1.579
	c0.043-0.343,0.086-0.729,0.001-1.068c-0.063-0.254-0.376-0.412-0.49-0.687c-0.328-0.792-1.024-1.497-1.457-2.252
	c-0.399-0.695-0.974-1.372-1.443-2.06c-0.565-0.828-1.156-1.682-1.734-2.452c-0.481-0.643-0.954-1.427-1.386-2.119
	c-0.119-0.191-0.217-0.573-0.365-0.73c-0.123-0.13-0.649-0.887-0.779-0.887c-0.21,0-0.961-1.5-1.116-1.708
	c-0.231-0.312-0.518-0.58-0.638-0.959c-0.094-0.296-0.229-0.227-0.383-0.43c-0.181-0.239-0.208-0.553-0.42-0.779
	c-0.832-0.893-1.491-2.056-2.099-3.053c-0.339-0.558-0.738-1.049-1.116-1.575c-0.333-0.462-0.576-1.212-0.949-1.608
	c-0.902-0.959-1.521-2.167-2.37-3.247c-0.358-0.455-0.593-1.193-0.963-1.587c-0.107-0.114-0.702-0.887-0.748-0.887
	c-0.39,0-0.35-1.167-0.738-1.167c-0.28,0-0.986-1.499-1.137-1.723c-0.342-0.507-0.739-0.966-1.068-1.486
	c-0.145-0.229-0.311-0.466-0.411-0.72c-0.111-0.283-0.392-0.329-0.515-0.655C34.2,6.4,33.93,6.3,33.78,5.973
	c-0.22-0.48-0.646-0.85-0.829-1.349c-0.102-0.276-0.369-0.352-0.499-0.626c-0.232-0.488-0.688-0.829-0.913-1.322
	c-0.128-0.281-0.281-0.3-0.436-0.55C31.005,1.969,30.5,1.41,30.5,1.27C30.5-0.344,27.533-0.235,26.736,0.586 M92.617,0.676
	c-0.513,0.785-0.781,1.701-1.358,2.423c-0.641,0.801-1.12,1.882-1.616,2.812c-0.303,0.567-0.703,1.065-1.025,1.625
	c-0.267,0.463-0.525,0.932-0.778,1.402C87.589,9.406,87.375,10.125,87,10.5c-0.304,0.305-0.506,0.787-0.702,1.163
	c-0.218,0.419-0.52,0.749-0.749,1.123c-0.572,0.935-1.057,1.964-1.595,2.936c-0.891,1.605-1.842,3.128-2.74,4.762
	c-0.916,1.667-1.934,3.289-2.834,4.936c-0.426,0.779-0.961,1.47-1.326,2.292c-0.134,0.302-0.41,0.553-0.579,0.845
	c-0.345,0.596-0.627,1.231-1.016,1.802c-0.962,1.407-1.641,3.062-2.506,4.523c-0.187,0.316-0.502,0.582-0.696,0.934
	c-0.284,0.516-0.584,1.023-0.861,1.543c-0.205,0.385-0.351,0.911-0.631,1.246c-0.155,0.187-0.61,1.229-0.784,1.229
	c-0.168,0-0.545,1.031-0.698,1.205c-0.212,0.24-0.451,0.745-0.451,1.07c0,0.064,3.106,0.058,3.296,0.059
	c1.348,0.002,2.695,0,4.043,0c0.764-1.651,1.712-3.29,2.674-4.834c0.183-0.29,1.201-2.666,1.508-2.666c0.375,0,0.933-1.667,1.006-2
	c3.823,0,7.647,0,11.47,0c3.228,0,6.459-0.031,9.687,0.039c0.409,0.009,1.77-0.165,2.081,0.252c0.971,1.308,1.648,2.985,2.442,4.406
	c0.405,0.725,0.718,1.498,1.162,2.2c0.435,0.688,0.718,1.989,1.382,2.475c0.214,0.157,0.786,0.086,1.031,0.095
	c0.784,0.028,1.568,0.033,2.353,0.033c1.327-0.001,2.711,0.062,4.03-0.118c0.325-0.044-0.421-1.014-0.568-1.266
	c-0.446-0.765-0.81-1.673-1.355-2.372c-0.24-0.308-0.338-0.66-0.521-1.003c-0.2-0.377-0.719-0.898-0.719-1.348
	c0-0.216-0.525-0.819-0.636-1.053c-0.262-0.552-0.638-1.071-0.925-1.616c-3.567-6.776-7.501-13.208-11.167-19.958
	c-1.362-2.508-2.655-4.844-4.05-7.33c-0.696-1.24-1.376-2.471-2.071-3.708C94.494,1.523,93.696-0.975,92.617,0.676 M272.336,0.447
	c-0.896,0.091-1.86,0.458-2.747,0.663c-0.786,0.182-1.828,0.506-2.481,0.932c-0.418,0.273-0.975,0.266-1.381,0.562
	c-0.231,0.167-0.408,0.303-0.679,0.434c-0.712,0.344-1.358,0.841-1.979,1.324c-1.503,1.17-2.965,2.466-4.203,3.917
	c-0.401,0.471-0.746,0.995-1.127,1.458c-0.253,0.306-0.442,0.699-0.679,1.011c-0.273,0.36-0.621,0.994-0.796,1.417
	c-0.7,1.699-1.313,3.282-1.675,5.112c-0.377,1.909-0.44,3.776-0.377,5.72c0.059,1.81,0.319,3.882,1.008,5.549
	c0.349,0.846,0.59,1.648,0.936,2.451c0.248,0.577,0.573,1.11,0.89,1.65c0.127,0.217,0.251,0.436,0.366,0.659
	c0.144,0.28,0.389,0.384,0.537,0.601c0.319,0.465,0.605,0.96,0.995,1.409c0.52,0.599,1.081,1.164,1.646,1.719
	c1.065,1.047,2.364,1.785,3.479,2.725c0.676,0.569,1.598,0.836,2.324,1.309c0.746,0.486,1.898,0.789,2.756,1.006
	c0.411,0.104,0.612,0.339,0.972,0.449c0.474,0.146,0.988,0.182,1.479,0.224c2.994,0.257,6.196,0.311,9.174-0.143
	c1.43-0.217,2.715-1.004,4.108-1.359c0.42-0.104,0.686-0.435,1.11-0.574c0.313-0.104,0.804-0.67,1.075-0.67
	c0.552,0,1.591-0.951,2.057-1.328c2.216-1.793,4.23-3.868,5.64-6.331c0.371-0.649,0.764-1.324,1.011-2.033
	c0.253-0.727,0.492-1.523,0.783-2.281c0.232-0.604,0.422-1.152,0.517-1.833c0.063-0.459,0.044-0.935,0.116-1.39
	c0.044-0.271,0.209-0.398,0.238-0.692c0.116-1.151,0.084-2.33,0.063-3.484c-0.008-0.468-0.017-0.939-0.063-1.405
	c-0.029-0.292-0.189-0.392-0.238-0.648c-0.155-0.829-0.16-1.68-0.35-2.512c-0.057-0.249-0.142-0.438-0.24-0.664
	c-0.181-0.413-0.207-1.572-0.604-1.817c-0.361-0.225-0.47-1.139-0.643-1.504c-0.18-0.377-0.43-0.733-0.622-1.121
	c-0.33-0.662-0.902-1.282-1.323-1.905c-0.902-1.337-2.179-2.509-3.36-3.594c-1.05-0.964-2.354-1.977-3.651-2.56
	c-0.653-0.293-1.302-0.81-1.999-1.063c-1.127-0.409-2.233-0.691-3.395-0.994c-1.258-0.328-2.438-0.388-3.76-0.421
	C275.623,0.379,273.951,0.281,272.336,0.447 M319.375,0.446c-0.43,0.044-0.747,0.387-1.135,0.387c-0.443,0-0.899,0.112-1.326,0.223
	c-0.909,0.234-1.785,0.625-2.646,1.004c-1.79,0.789-3.539,1.85-5.035,3.157c-0.915,0.801-1.777,1.678-2.608,2.564
	c-0.413,0.44-0.689,1.012-1.093,1.413c-1.443,1.436-1.976,3.612-2.804,5.378c-0.299,0.638-0.449,1.337-0.538,2.041
	c-0.059,0.473-0.288,0.778-0.333,1.252c-0.137,1.41-0.121,2.843-0.12,4.257c0,1.253-0.072,2.58,0.132,3.822
	c0.099,0.6,0.386,1.216,0.51,1.836c0.076,0.383,0.724,2.72,0.958,2.72c0.126,0,1.055,2.042,1.216,2.326
	c0.526,0.928,1.2,1.78,1.883,2.598c0.692,0.829,1.425,1.634,2.223,2.364c0.48,0.44,1.622,1.712,2.324,1.712
	c0.152,0,0.846,0.644,1.049,0.743c0.414,0.205,0.885,0.405,1.243,0.704c0.323,0.271,0.737,0.341,1.126,0.486
	c0.474,0.177,0.782,0.449,1.308,0.571c1.198,0.282,2.164,0.664,3.424,0.761c1.66,0.127,3.332,0.149,4.997,0.119
	c1.286-0.024,2.658-0.006,3.918-0.307c0.297-0.071,0.397-0.261,0.646-0.355c1.012-0.385,2.129-0.502,3.049-1.113
	c1.704-1.132,3.445-2.105,4.919-3.638c0.535-0.557,1.314-1.186,1.664-1.892c0.182-0.367,0.462-0.652,0.706-0.98
	c0.196-0.264,0.258-0.597,0.465-0.825c0.452-0.496,0.723-1.301,0.974-1.911c0.263-0.637,0.558-1.22,0.699-1.905
	c0.132-0.641,0.402-1.231,0.501-1.875c0.156-1.024,0.221-2.066,0.273-3.101c0.072-1.438,0.057-2.877,0.057-4.315
	c-5.723,0-11.444,0-17.167,0c0,2.056,0,4.11,0,6.166c3.364,0,6.728,0,10.092,0c-0.297,3.124-2.245,5.688-4.727,7.484
	c-1.042,0.754-2.204,1.393-3.305,1.914c-0.788,0.372-1.668,0.287-2.492,0.458c-0.231,0.049-0.293,0.222-0.552,0.258
	c-0.455,0.064-0.925,0.061-1.383,0.04c-1.574-0.07-3.239-0.598-4.668-1.176c-1.707-0.69-3.177-1.709-4.564-2.914
	c-2.301-1.998-4.382-5.091-4.714-8.187c-0.175-1.626-0.182-3.283-0.111-4.915c0.026-0.624,0.059-1.255,0.17-1.87
	c0.085-0.466,0.359-0.703,0.484-1.153c0.642-2.305,2.138-4.548,3.929-6.168c0.73-0.66,1.4-1.217,2.22-1.752
	c0.598-0.391,1.668-1.183,2.413-1.186c0.195,0,0.677-0.366,0.922-0.428c0.482-0.122,1.195-0.153,1.604-0.472
	c0.302-0.236,1.104-0.146,1.457-0.16c1.45-0.056,2.986-0.133,4.428,0.082c0.595,0.088,1.302,0.371,1.887,0.565
	c0.992,0.331,2.134,0.906,2.99,1.509c0.854,0.602,1.698,1.284,2.457,2.001c0.465,0.44,0.901,0.912,1.298,1.415
	c0.226,0.286,0.572,0.898,0.989,0.938c0.56,0.053,1.209-0.92,1.534-1.253c0.597-0.611,1.214-1.205,1.848-1.778
	c0.357-0.322,1.003-0.712,1.149-1.204c0.139-0.463-0.455-0.953-0.729-1.234c-1.954-2.01-4.118-3.607-6.377-5.092
	c-0.544-0.357-1.439-0.769-2.061-0.923c-0.838-0.209-1.583-0.63-2.452-0.762c-0.747-0.113-1.326-0.338-2.113-0.385
	C324.133,0.351,321.695,0.206,319.375,0.446 M379.125,0.445c-0.45,0.042-0.817,0.388-1.218,0.388c-0.433,0-0.88,0.113-1.297,0.215
	c-0.972,0.237-1.998,0.633-2.904,1.049c-0.306,0.14-0.905,0.231-1.158,0.443c-0.378,0.317-0.727,0.576-1.188,0.832
	c-0.961,0.532-1.79,1.221-2.64,1.915c-2.911,2.378-5.395,5.555-6.525,9.158c-0.209,0.666-0.485,1.265-0.619,1.953
	c-0.143,0.737-0.05,1.845-0.432,2.455c-0.381,0.608-0.144,2.064-0.144,2.732c0,0.787-0.197,2.061,0.16,2.785
	c0.44,0.892,0.32,2.146,0.529,3.112c0.182,0.846,0.508,1.865,0.885,2.649c1.025,2.127,2.183,4.018,3.762,5.79
	c1.139,1.279,2.472,2.711,4.059,3.434c0.63,0.285,1.128,0.907,1.77,1.187c0.241,0.104,2.503,1.016,2.503,1.143
	c0,0.131,2.438,0.884,2.948,0.954c1.508,0.208,3.051,0.234,4.571,0.247c1.527,0.013,3.087,0.021,4.603-0.197
	c1.022-0.146,2.054-0.418,3.037-0.731c0.383-0.123,0.721-0.286,1.081-0.457c0.313-0.147,1.048-0.194,1.258-0.47
	c0.448-0.589,1.568-0.816,2.189-1.24c0.261-0.178,0.48-0.37,0.771-0.519c0.326-0.168,0.479-0.495,0.776-0.613
	c0.545-0.217,1.05-0.828,1.465-1.219c0.757-0.714,1.497-1.454,2.176-2.243c1.114-1.297-0.764-2.55-1.646-3.429
	c-0.667-0.665-1.339-1.437-2.136-1.953c-0.082-0.053-0.266-0.182-0.367-0.1c-0.04,0.031-0.052,0.087-0.057,0.135
	c-0.035,0.312-0.148,0.216-0.328,0.404c-0.38,0.397-0.649,0.951-1.04,1.37c-0.368,0.395-0.738,0.787-1.125,1.163
	c-0.669,0.652-1.424,1.319-2.255,1.754c-1.782,0.935-3.309,1.742-5.374,2.025c-0.81,0.111-1.582,0.401-2.398,0.428
	c-0.817,0.027-1.376-0.294-2.135-0.33c-1.909-0.09-3.411-0.873-5.107-1.592c-0.342-0.146-0.5-0.409-0.823-0.579
	c-0.477-0.25-0.916-0.591-1.336-0.923c-0.723-0.57-1.36-1.26-2.007-1.911c-1.3-1.311-2.258-3.134-2.873-4.879
	c-0.479-1.363-0.742-2.554-0.776-3.992c-0.033-1.378-0.144-2.883,0.109-4.247c0.122-0.661,0.468-1.442,0.685-2.1
	c0.286-0.871,0.735-1.573,1.076-2.351c0.659-1.506,2.123-2.877,3.314-3.966c4.401-4.023,11.52-4.775,16.704-1.912
	c1.623,0.896,2.94,2.037,4.216,3.37c0.315,0.33,0.624,0.641,0.822,1.036c0.133,0.265,0.979-0.55,1.06-0.622
	c0.899-0.799,1.746-1.66,2.592-2.514c0.21-0.213,1.313-1.037,1.102-1.381c-0.742-1.203-2.105-2.211-3.168-3.112
	c-1.127-0.956-2.438-1.943-3.769-2.526c-0.385-0.169-0.721-0.347-1.074-0.542c-0.521-0.287-1.165-0.25-1.688-0.53
	c-0.778-0.416-1.726-0.476-2.562-0.785c-1-0.37-2.482-0.171-3.527-0.193C382.151,0.38,380.62,0.308,379.125,0.445 M121.5,21.563
	v20.604c2.222,0,4.445,0,6.667,0c0-5.5,0-11,0-16.5c0.602,0,1.331-0.101,1.915,0.051c0.791,0.205,1.553,1.553,2.087,2.126
	c1.648,1.767,3.322,3.518,4.941,5.311c1.512,1.673,2.987,3.378,4.511,5.044c0.787,0.86,1.597,1.698,2.383,2.559
	c0.198,0.216,0.975,1.41,1.288,1.41c1.318,0,2.635,0,3.953,0c0.431,0,4.564-0.177,4.572-0.157c-0.282-0.672-1.083-1.283-1.55-1.817
	c-0.715-0.818-1.406-1.654-2.129-2.466c-1.455-1.632-2.849-3.302-4.303-4.929c-2.307-2.582-4.672-5.156-6.844-7.854
	c1.73-0.561,3.472-1.095,5.028-2.065c1.46-0.911,3.289-2.374,3.967-4.01c0.162-0.394,0.456-0.613,0.594-1.019
	c0.138-0.403,0.197-0.883,0.476-1.219c0.288-0.348,0.256-1.102,0.286-1.519c0.111-1.524,0.15-3.147-0.112-4.659
	c-0.096-0.555-0.384-1.065-0.554-1.604c-0.31-0.983-1.021-1.824-1.65-2.618c-0.56-0.707-1.25-1.292-1.966-1.837
	c-0.73-0.556-1.744-1.322-2.648-1.488c-0.397-0.076-0.602-0.321-0.971-0.436c-0.501-0.156-1.049-0.195-1.532-0.411
	c-0.625-0.279-1.348-0.346-2.026-0.438c-0.7-0.095-1.407-0.067-2.052-0.344c-0.279-0.12-0.66-0.099-0.955-0.116
	c-4.441-0.26-8.926-0.159-13.375-0.203V21.563 M153.833,4.083v3.084c3.945,0,7.889,0,11.834,0c0,8.882,0,17.765,0,26.647
	c0,2.784,0,5.568,0,8.353c2.222,0,4.444,0,6.666,0c0-8.883,0-17.765,0-26.647c0-2.784,0-5.568,0-8.353c3.945,0,7.889,0,11.834,0
	c0-2.056,0-4.111,0-6.167c-9.346,0-18.692,0-28.039,0c-0.765,0-1.53,0-2.295,0V4.083 M224,21.583v20.584c9.28,0,18.56,0,27.84,0
	c0.223,0,0.445,0,0.668,0c-0.03-2.028-0.061-4.056-0.091-6.084c-7.306-0.028-14.611-0.057-21.917-0.085c0-8.882,0-17.764,0-26.646
	c0-2.784,0-5.568,0-8.352c-2.167,0-4.333,0-6.5,0V21.583 M348.167,21.583v20.584c2.222,0,4.444,0,6.666,0c0-8.261,0-16.521,0-24.781
	c0-5.462,0-10.924,0-16.386c-2.222,0-4.444,0-6.666,0V21.583 M279.146,6.787c0.209,0.318,1.146,0.367,1.474,0.45
	c0.244,0.062,0.727,0.43,0.922,0.43c0.653,0,1.589,0.684,2.136,0.996c1.848,1.053,3.483,2.743,4.639,4.515
	c0.619,0.951,1.301,2.08,1.63,3.175c0.175,0.58,0.256,1.191,0.48,1.755c0.081,0.204,0.19,0.304,0.223,0.521
	c0.214,1.457,0.129,3.007,0.076,4.472c-0.215,5.997-5.282,12.167-11.252,13.341c-0.884,0.174-1.815,0.146-2.645,0.444
	c-1.084,0.391-1.977-0.176-2.979-0.224c-1.864-0.089-3.469-0.785-5.079-1.659c-0.976-0.529-1.862-1.179-2.689-1.915
	c-0.804-0.716-1.805-1.505-2.368-2.444c-0.437-0.729-1.013-1.413-1.339-2.23c-0.465-1.163-0.722-2.328-1.138-3.5
	c-0.406-1.142-0.318-2.413-0.308-3.631c0.006-0.699,0.015-1.402,0.077-2.099c0.064-0.713,0.381-1.401,0.54-2.103
	c0.503-2.217,1.906-4.216,3.444-5.844c0.81-0.858,1.703-1.546,2.64-2.254c0.831-0.628,1.635-0.957,2.573-1.382
	c1.481-0.678,3.028-0.974,4.645-1.019c0.9-0.025,1.802-0.025,2.701,0.008C277.824,6.599,278.959,6.508,279.146,6.787 M134.333,7.49
	c0.25,0.384,1.763,0.33,2.2,0.399c0.423,0.066,0.717,0.161,1.078,0.348c1.088,0.564,2.287,0.771,3.28,1.558
	c0.49,0.388,1.257,0.799,1.463,1.415c0.223,0.665,0.522,1.193,0.61,1.904c0.147,1.181-0.302,1.916-0.977,2.843
	c-0.082,0.113-0.248,0.711-0.458,0.711c-0.261,0-0.574,0.384-0.764,0.529c-0.593,0.453-1.29,0.789-1.97,1.089
	c-1.062,0.469-2.291,0.927-3.441,1.087c-2.379,0.332-4.791,0.294-7.188,0.294c0-4.182,0-8.364,0-12.546
	c0.891,0.036,1.782,0.071,2.672,0.107c0.602,0.024,1.204,0.05,1.805,0.086C132.882,7.329,134.178,7.257,134.333,7.49 M93.525,13
	c0.167,0.476,0.604,1.192,0.901,1.587c0.338,0.448,0.727,1.019,0.96,1.536c0.232,0.513,0.482,0.896,0.752,1.378
	c0.379,0.677,0.645,1.555,1.178,2.131c0.292,0.314,0.44,0.842,0.668,1.241c0.421,0.735,0.854,1.463,1.245,2.215
	c0.609,1.17,1.315,2.247,1.939,3.412c-5.383,0-10.766,0-16.149,0c0.138-0.264,0.404-1.278,0.619-1.36
	c0.423-0.172,0.857-1.306,1.064-1.667c0.439-0.766,0.954-1.525,1.344-2.313c0.111-0.225,0.901-1.826,1.122-1.826
	c0.072,0,0.953-1.647,1.048-1.833c0.299-0.581,0.579-1.318,1.051-1.791c0.265-0.268,0.322-0.654,0.497-0.973
	c0.18-0.326,0.442-0.615,0.639-0.933C92.672,13.371,93.131,11.872,93.525,13 M30.583,15.107c0.752,1.032,1.57,2.014,2.315,3.05
	c0.516,0.716,1.469,1.529,1.667,2.407c0.296,1.314-4.318,1.083-5.157,0.857c-0.614-0.165-0.692-0.786-0.725-1.336
	c-0.089-1.48-0.033-2.989-0.004-4.47c0.007-0.331-0.128-1.992,0.369-2.125C29.551,13.356,30.371,14.816,30.583,15.107
	 M40.453,29.293c0.685,0.68,1.002,1.626,1.633,2.306c0.583,0.628,0.916,1.268,1.428,1.979c0.163,0.227,0.769,0.856,0.37,1.116
	c-0.779,0.505-2.323,0.284-3.185,0.294c-3.205,0.037-6.412,0.011-9.618,0.01c-0.559,0-1.117,0-1.676,0
	c-0.437,0-0.545-0.237-0.754-0.648c-0.612-1.203-0.604-3.651-0.041-4.87c0.183-0.396,0.268-0.646,0.69-0.646
	c0.684,0,1.368,0,2.052,0c1.059,0,2.118,0,3.176,0c1.099,0,2.198,0,3.297,0c0.585,0,1.171,0,1.756,0
	C40.056,28.833,40.09,28.933,40.453,29.293"/>
<path id="path1" fill="#939393" d="M198.033,4.867c-0.149,0.149-0.2,1.896-0.2,6.831v6.632l-6.875,0.043l-6.875,0.044l-0.045,2.875
	l-0.046,2.875h6.919h6.919l0.043,6.791l0.044,6.792l2.875,0.046l2.875,0.045v-6.837v-6.837h6.916h6.917v-2.815
	c0-2.413-0.038-2.83-0.264-2.917c-0.146-0.056-3.258-0.102-6.916-0.102h-6.653v-6.731c0-5.985-0.03-6.743-0.265-6.833
	C202.889,4.57,198.244,4.656,198.033,4.867"/>
<path id="path2" fill="#939393" d="M0,0"/>
</svg>
